<?xml version="1.0" encoding="utf-8"?>
<!-- Generator: Adobe Illustrator 19.1.1, SVG Export Plug-In . SVG Version: 6.00 Build 0)  -->
<svg version="1.1" id="Layer_1" xmlns="http://www.w3.org/2000/svg" xmlns:xlink="http://www.w3.org/1999/xlink" x="0px" y="0px"
	 viewBox="0 0 54.1 19.1" style="enable-background:new 0 0 54.1 19.1;" xml:space="preserve">
<path d="M50.4,17.5H3.1c-1.2,0-2.2-1-2.2-2.2v0c0-1.2,1-2.2,2.2-2.2h47.3c1.2,0,2.2,1,2.2,2.2v0C52.6,16.5,51.6,17.5,50.4,17.5z"/>
<path d="M50.4,6.3H3.1c-1.2,0-2.2-1-2.2-2.2v0C0.9,3,1.9,2,3.1,2h47.3c1.2,0,2.2,1,2.2,2.2v0C52.6,5.4,51.6,6.3,50.4,6.3z"/>
</svg>
